<?xml version="1.0" encoding="utf-8"?>
<!-- Generator: Adobe Illustrator 23.0.6, SVG Export Plug-In . SVG Version: 6.00 Build 0)  -->
<svg version="1.1" id="Camada_1" xmlns="http://www.w3.org/2000/svg" xmlns:xlink="http://www.w3.org/1999/xlink" x="0px" y="0px"
	 viewBox="0 0 323.9 50" style="enable-background:new 0 0 323.9 50;" xml:space="preserve">
<style type="text/css">
	.st0{fill:#FFF;}
</style>
<path class="st0" d="M62.4,14.8h-3.7v8.7H50v3.8h8.6v8.8h3.7v-8.8H71v-3.8h-8.6V14.8z"/>
<path class="st0" d="M74.3,11.4c-3.5-3.6-8.4-5.8-13.8-5.8c-3.2,0-6.3,0.8-9,2.2c-5.4,2.7-11.8,2.7-17.3,0c-2.7-1.4-5.7-2.2-9-2.2
	c-5.4,0-10.2,2.2-13.8,5.8c-3.5,3.6-5.7,8.5-5.7,14c0,5.4,2.2,10.4,5.7,14c3.5,3.6,8.4,5.8,13.8,5.8c3.2,0,6.3-0.8,9-2.2
	c5.4-2.7,11.8-2.7,17.3,0c2.7,1.4,5.7,2.2,9,2.2c5.4,0,10.2-2.2,13.8-5.8c3.5-3.6,5.7-8.5,5.7-14C80,19.9,77.8,15,74.3,11.4z
	 M71.6,36.7c-2.8,2.9-6.8,4.6-11.1,4.6c-2.9,0-5.6-0.8-8-2.2c-6-3.5-13.3-3.5-19.3,0c-2.3,1.4-5,2.2-8,2.2c-4.3,0-8.3-1.8-11.2-4.6
	c-2.8-2.9-4.6-6.9-4.6-11.3c0-4.4,1.7-8.4,4.6-11.3c2.8-2.9,6.8-4.6,11.2-4.6c2.9,0,5.6,0.8,8,2.2c6,3.5,13.3,3.5,19.3,0
	c2.3-1.4,5-2.2,8-2.2c4.3,0,8.3,1.8,11.1,4.6c2.8,2.9,4.6,6.9,4.6,11.3C76.3,29.8,74.5,33.8,71.6,36.7z"/>
<path class="st0" d="M25.3,17.8c2.1,0,3.9,0.9,5.3,2.2l2.6-2.7c-2.1-2.1-4.8-3.3-7.9-3.3c-3.1,0-5.9,1.3-7.9,3.3
	c-2.1,2.1-3.3,4.9-3.3,8s1.3,6,3.3,8c2.1,2.1,4.8,3.3,7.9,3.3c3.1,0,5.9-1.3,7.9-3.3l-2.6-2.7c-1.4,1.4-3.2,2.2-5.3,2.2
	c-2.1,0-3.9-0.9-5.3-2.2c-1.4-1.4-2.2-3.3-2.2-5.4s0.8-4,2.2-5.4C21.4,18.7,23.3,17.8,25.3,17.8z"/>
<g>
	<path class="st0" d="M87.7,28.6c0-5.3,3.9-8.8,9.2-8.8c3.7,0,5.9,1.6,6.9,3.1l-3.5,3.2c-0.7-1-1.7-1.6-3.2-1.6
		c-2.2,0-3.9,1.5-3.9,4.1c0,2.5,1.7,4.1,3.9,4.1c1.4,0,2.5-0.7,3.2-1.6l3.5,3.3c-1,1.5-3.2,3.1-6.9,3.1
		C91.6,37.4,87.7,33.9,87.7,28.6z"/>
	<path class="st0" d="M106.3,37V13.8h5.4V37H106.3z"/>
	<path class="st0" d="M126.9,37v-2c-1,1.2-3,2.4-5.8,2.4c-3.8,0-5.5-2.2-5.5-5.3v-12h5.4v9.8c0,2.1,1,2.8,2.8,2.8
		c1.5,0,2.6-0.8,3.2-1.6V20.2h5.4V37H126.9z"/>
	<path class="st0" d="M136.2,37V13.8h5.4v8.4c1.3-1.7,3.1-2.4,5-2.4c4.2,0,7.4,3.3,7.4,8.8c0,5.7-3.3,8.9-7.4,8.9
		c-1.9,0-3.6-0.8-5-2.4v2H136.2z M144.8,32.7c2.1,0,3.7-1.6,3.7-4.1c0-2.5-1.6-4.1-3.7-4.1c-1.2,0-2.5,0.6-3.2,1.5v5.2
		C142.2,32.1,143.6,32.7,144.8,32.7z"/>
	<path class="st0" d="M155.7,28.6c0-4.9,3.7-8.8,8.9-8.8c5,0,8.6,3.7,8.6,9.4v1.2h-12c0.4,1.5,1.8,2.8,4.2,2.8
		c1.2,0,3.1-0.5,4.1-1.4l2.3,3.5c-1.7,1.5-4.5,2.2-7,2.2C159.7,37.4,155.7,34.1,155.7,28.6z M164.6,24.1c-2.3,0-3.2,1.4-3.5,2.6h6.9
		C168,25.5,167.1,24.1,164.6,24.1z"/>
	<path class="st0" d="M175.8,28.6c0-4.9,3.2-8.8,8.2-8.8c2.9,0,4.6,1.2,6,2.9l-1.3,1.1c-1.2-1.7-2.8-2.3-4.6-2.3
		c-3.9,0-6.3,3.1-6.3,7.2c0,4,2.4,7.2,6.3,7.2c1.8,0,3.4-0.7,4.6-2.4l1.3,1.1c-1.4,1.7-3,2.9-6,2.9
		C179.1,37.4,175.8,33.5,175.8,28.6z"/>
	<path class="st0" d="M205.4,37v-2.5c-1.4,1.5-3.6,2.9-6.1,2.9c-3.4,0-5.3-1.6-5.3-5.4V20.2h1.8v11.4c0,3.3,1.6,4.2,4.1,4.2
		c2.2,0,4.4-1.3,5.5-2.8V20.2h1.8V37H205.4z"/>
	<path class="st0" d="M212.9,37V20.2h1.8v2.9c1.4-1.9,3.3-3.2,5.7-3.2v2c-0.3-0.1-0.6-0.1-0.9-0.1c-1.7,0-4,1.5-4.8,3V37H212.9z"/>
	<path class="st0" d="M224.3,33.8v-12h-2.8v-1.6h2.8v-4.6h1.8v4.6h3.4v1.6h-3.4v11.7c0,1.4,0.6,2.3,1.7,2.3c0.8,0,1.5-0.4,1.9-0.8
		l0.7,1.4c-0.7,0.6-1.5,1-2.9,1C225.3,37.4,224.3,36.1,224.3,33.8z"/>
	<path class="st0" d="M244.2,37v-2c-1.5,1.6-3.4,2.4-5.7,2.4c-2.9,0-5.9-2-5.9-5.6c0-3.7,3-5.6,5.9-5.6c2.3,0,4.3,0.8,5.7,2.4v-3.4
		c0-2.5-2-3.9-4.5-3.9c-2.1,0-3.8,0.7-5.3,2.5l-1-1.3c1.7-1.9,3.7-2.8,6.5-2.8c3.4,0,6.1,1.6,6.1,5.4V37H244.2z M244.2,33.7V30
		c-1.2-1.6-3.1-2.3-5.1-2.3c-2.8,0-4.6,1.8-4.6,4.2c0,2.4,1.8,4.2,4.6,4.2C241.1,36,243,35.2,244.2,33.7z"/>
	<path class="st0" d="M272,37V26.8c0-1.3-0.6-2.3-2.2-2.3c-1.5,0-2.5,0.9-3,1.6V37h-5.4V26.8c0-1.3-0.6-2.3-2.2-2.3
		c-1.5,0-2.5,0.9-3,1.6V37h-5.4V20.2h5.4v2.1c0.7-1,2.9-2.5,5.5-2.5c2.4,0,4.1,1,4.8,3c1-1.5,3.2-3,5.8-3c3.1,0,5.1,1.6,5.1,5.1V37
		H272z"/>
	<path class="st0" d="M291.3,37v-1.7c-1,1.3-3.1,2.1-5.2,2.1c-2.6,0-5.8-1.8-5.8-5.5c0-4.1,3.2-5.4,5.8-5.4c2.2,0,4.2,0.7,5.2,2
		v-1.7c0-1.5-1.3-2.5-3.4-2.5c-1.7,0-3.3,0.7-4.7,1.8l-2-3.7c2.2-1.8,5.1-2.6,7.6-2.6c4,0,7.8,1.5,7.8,6.7V37H291.3z M291.3,32.7
		v-1.5c-0.6-0.8-1.8-1.2-3-1.2c-1.4,0-2.7,0.6-2.7,2s1.3,2,2.7,2C289.5,33.9,290.7,33.5,291.3,32.7z"/>
	<path class="st0" d="M300.2,15.6c0-1.7,1.4-3.1,3.1-3.1c1.7,0,3.1,1.4,3.1,3.1s-1.4,3.1-3.1,3.1C301.5,18.7,300.2,17.3,300.2,15.6z
		 M300.5,37V20.2h5.4V37H300.5z"/>
	<path class="st0" d="M308.4,34.8l2.2-3.8c1.3,1.1,3.9,2.3,5.9,2.3c1.6,0,2.3-0.5,2.3-1.2c0-2.1-9.8,0.1-9.8-6.8
		c0-3,2.6-5.5,7.2-5.5c2.9,0,5.2,0.9,7,2.2l-2.1,3.8c-1-1-2.9-1.8-5-1.8c-1.3,0-2.1,0.5-2.1,1.2c0,1.8,9.8-0.1,9.8,6.8
		c0,3.2-2.8,5.5-7.6,5.5C313.3,37.4,310.2,36.4,308.4,34.8z"/>
</g>
</svg>
