<svg xmlns="http://www.w3.org/2000/svg" width="31.688" height="19.724" viewBox="0 0 31.688 19.724"><path d="M752.887,646.668c-.413,0-.611-.32-.394-.671l3.873-6.454,1.962-3.393,0-.015a2.894,2.894,0,0,0-2.445-4.363l0,0H746.54a.006.006,0,0,0-.006.006v3.991a.827.827,0,0,0,.828.828h5.044l.005.009L746.3,646.987a7.538,7.538,0,0,0-.629,1.35,1.639,1.639,0,0,0-.069.234,2.444,2.444,0,0,0-.051.5,2.4,2.4,0,0,0,.1.694,1.7,1.7,0,0,0,.169.415,2.411,2.411,0,0,0,1.982,1.3c.049,0,.1.008.147.008h9.159a.65.65,0,0,0,.65-.65v-4.162h-4.872Z" transform="translate(-745.55 -631.758)"/><path d="M810.134,641.94h-3a.732.732,0,0,0-.732.732v3.947a.734.734,0,0,1-.716.733l-.153,0a3.907,3.907,0,0,1-3.269-1.395,6.79,6.79,0,0,1-1.1-4.238,6.965,6.965,0,0,1,1.124-4.317,3.8,3.8,0,0,1,3.192-1.448,8.034,8.034,0,0,1,.817.04q.383.04.766.12t.8.213c.068.021.3.142.37.165a.733.733,0,0,0,.934-.5c.2-.738.488-1.789.686-2.5a.779.779,0,0,0-.441-.879,6.659,6.659,0,0,0-1.995-.6,13.964,13.964,0,0,0-2.322-.179,8.859,8.859,0,0,0-3.706.721,7.664,7.664,0,0,0-2.745,2.073,9.293,9.293,0,0,0-1.7,3.148,12.789,12.789,0,0,0-.587,3.945,13.186,13.186,0,0,0,.562,3.932,8.487,8.487,0,0,0,1.7,3.108,7.8,7.8,0,0,0,2.822,2.033,9.82,9.82,0,0,0,3.932.731,8.981,8.981,0,0,0,2.516-.35,8.809,8.809,0,0,0,2.495-1.087c.308-.216.48-.38.48-.688v-6.728A.732.732,0,0,0,810.134,641.94Z" transform="translate(-779.177 -631.802)"/><path d="M783.016,634.733a8.4,8.4,0,0,1-.63,2.678c-.044.122.107.261.186.162a12.939,12.939,0,0,1,1.892-2.131,16.413,16.413,0,0,1,2.233-1.582c.03-.017.31-.222.337-.245a1.049,1.049,0,0,0,.373-.63c.087-.668.185-1.237-.466-1.237l-5.292-.01a.035.035,0,0,0-.017.065A3.144,3.144,0,0,1,783.016,634.733Z" transform="translate(-769.418 -631.737)"/><path d="M789.379,654.361a.857.857,0,0,0-.067-.386c-.055-.1-.166-.242-.325-.468a12.555,12.555,0,0,1-1.108-1.835,13.922,13.922,0,0,1-.559-1.515,13.57,13.57,0,0,1-.691-3.888,9.926,9.926,0,0,1,.691-3.992,12.516,12.516,0,0,1,.9-1.631,2.589,2.589,0,0,0,.176-1.173c0-.434,0-.93,0-.975a11.829,11.829,0,0,0-3.972,3.4,8.741,8.741,0,0,0-1.369,4.985v8.4a.652.652,0,0,0,.652.652h5.007a.664.664,0,0,0,.664-.664v-.908Z" transform="translate(-770.373 -636.21)"/></svg>